<svg id="Layer_1" data-name="Layer 1" xmlns="http://www.w3.org/2000/svg" viewBox="0 0 39 7.14"><defs><style>.cls-1{font-size:4.94px;font-family:Baloo;}.cls-1,.cls-4{fill:#070200;}.cls-2{letter-spacing:0.01em;}.cls-3{letter-spacing:-0.01em;}</style></defs><title>sww</title><text class="cls-1" transform="translate(5.63 4.36)"><tspan class="cls-2">C</tspan><tspan x="2.89" y="0">ALI</tspan><tspan class="cls-3" x="10.03" y="0">S</tspan><tspan x="12.68" y="0">THEBARZ</tspan></text><polygon class="cls-4" points="3.12 7.14 6.16 5.39 4.53 4.37 2.04 5.82 0.61 5.03 0.63 2.04 3.58 0.34 3.08 0 0.02 1.75 0 5.41 2 6.53 4.53 5.03 5.07 5.41 2.57 6.82 3.12 7.14"/><path class="cls-4" d="M2.61,5.91l.46-.28-.79-.47V3.41L4.78,2l.48.3-1.69,1a.16.16,0,0,0,0,.28l.31.19L6.24,2.34l-1.39-1L1.7,3.09V5.38Z" transform="translate(-0.6 -0.68)"/><path class="cls-4" d="M5.49,4.89,3.68,3.58s0-.09.07-.19l.06-.09c.08-.1.2-.15.28-.09L5.9,4.52Z" transform="translate(-0.6 -0.68)"/></svg>